# xmcd CD database file
#
# Track frame offsets:
#	150
#	20075
#	41737
#	62842
#	84012
#	103957
#	121650
#	142910
#	158705
#	176584
#
# Disc length: 2648 seconds
#
# Revision: 0
# Processed by: cddbd v1.5.1PL0 Copyright (c) Steve Scherf et al.
# Submitted via: CDex 1.51
#
DISCID=7b0a560a
DTITLE=近藤真彦 - ゲット・バック
DYEAR=1900
DGENRE=JPop
TTITLE0=ＢＲＥＡＴＨＬＥＳＳ
TTITLE1=愛はひとつ
TTITLE2=ＭＯＶＩＮ’ＯＵＴ
TTITLE3=いいことあるさ
TTITLE4=ＧＥＴ　ＩＴ　ＲＯＣＫ
TTITLE5=ＢＡＣＫ　ＴＯ　ＨＯＭＥ
TTITLE6=ミッドナイト・シャッフル
TTITLE7=君のためにサヨナラ
TTITLE8=ＴＲＵＴＨ
TTITLE9=ＬＯＶＥ
EXTD=
EXTT0=
EXTT1=
EXTT2=
EXTT3=
EXTT4=
EXTT5=
EXTT6=
EXTT7=
EXTT8=
EXTT9=
PLAYORDER=
